<svg xmlns="http://www.w3.org/2000/svg" viewBox="0 0 100 100">
  <defs>
    <linearGradient id="pGrad" x1="0%" y1="0%" x2="100%" y2="100%">
      <stop offset="0%" style="stop-color:#22d3ee;stop-opacity:1" />
      <stop offset="50%" style="stop-color:#818cf8;stop-opacity:1" />
      <stop offset="100%" style="stop-color:#c084fc;stop-opacity:1" />
    </linearGradient>
    <filter id="glow">
      <feGaussianBlur stdDeviation="1.5" result="blur" />
      <feComposite in="SourceGraphic" in2="blur" operator="over" />
    </filter>
  </defs>
  
  <rect width="100" height="100" rx="20" fill="#020617" />
  
  <!-- Stylized P -->
  <path d="M30 25 V75 M30 25 H55 C70 25 75 35 75 45 C75 55 70 65 55 65 H30" 
        fill="none" 
        stroke="url(#pGrad)" 
        stroke-width="10" 
        stroke-linecap="round" 
        stroke-linejoin="round"
        filter="url(#glow)" />
  
  <!-- Neural/Circuit Patterns on the right side of the P -->
  <circle cx="75" cy="45" r="3" fill="#22d3ee" />
  <path d="M75 45 L85 35 M75 45 L85 55 M85 35 L90 35 M85 55 L90 55" 
        stroke="#22d3ee" 
        stroke-width="2" 
        fill="none" />
  <circle cx="90" cy="35" r="1.5" fill="#22d3ee" />
  <circle cx="90" cy="55" r="1.5" fill="#22d3ee" />
  
  <path d="M72 35 L80 25 L85 25" stroke="#818cf8" stroke-width="1.5" fill="none" />
  <circle cx="85" cy="25" r="1.5" fill="#818cf8" />
  
  <path d="M72 55 L80 65 L85 65" stroke="#c084fc" stroke-width="1.5" fill="none" />
  <circle cx="85" cy="65" r="1.5" fill="#c084fc" />
</svg>
